<svg id="line" height="512" viewBox="0 0 64 64" width="512" xmlns="http://www.w3.org/2000/svg"><path d="m18.581 27.2-7.323 1.83a1 1 0 0 0 -.758.97v32a1 1 0 0 0 1.242.97c4.391-.63 12.517-5.11 22.758-.322v-34.166a25.156 25.156 0 0 0 -15.919-1.282z" fill="#EF959D"/><path d="m59.742 29.03-7.323-1.83c-.636-.159-1.276-.289-1.919-.4v11.52a.281.281 0 0 1 -.479.2l-1.814-1.814a1 1 0 0 0 -1.414 0l-1.814 1.814a.281.281 0 0 1 -.479-.2v-11.783a25.449 25.449 0 0 0 -8 1.945v34.166c10.231-4.786 18.375-.307 22.758.322a1 1 0 0 0 1.242-.97v-32a1 1 0 0 0 -.758-.97z" fill="#EF959D"/><g fill="#503047"><path d="m35.5 1h-29a3 3 0 0 0 -3 3v36a3 3 0 0 0 3 3h29a3 3 0 0 0 3-3v-36a3 3 0 0 0 -3-3zm-30 3a1 1 0 0 1 1-1h2v7.006l-3 .019zm0 8.025 3-.019v6.484l-3 .019zm0 8.484 3-.019v6.516l-3 .019zm3 8.5v6.991h-3v-6.975zm28 10.991a1 1 0 0 1 -1 1h-29a1 1 0 0 1 -1-1v-1a1 1 0 0 1 1-1h30zm0-4h-26v-33h25a1 1 0 0 1 1 1z"/><path d="m33 10h-19a1 1 0 0 0 -1 1v8a1 1 0 0 0 1 1h19a1 1 0 0 0 1-1v-8a1 1 0 0 0 -1-1zm-1 8h-17v-6h17z"/></g></svg>